# xmcd CD database file
#
# Track frame offsets:
#	150
#	15085
#	29252
#	41740
#	56230
#	72440
#	83480
#	96807
#	113527
#	124982
#	139915
#	150140
#	162777
#	178075
#	191055
#	203262
#
# Disc length: 2845 seconds
#
# Revision: 0
# Processed by: cddbd v1.5.2PL0 Copyright (c) Steve Scherf et al.
# Submitted via: CDex 1.51
#
DISCID=c50b1b10
DTITLE=Frankie Laine - 16 Classic Songs - 2 Great Albums on 1 Compact Disc
DYEAR=1999
DGENRE=Country
TTITLE0=Tomorrow Mountain (Duke Ellington, John Latouche)
TTITLE1=Song of the Islands (Na Lei O Hawaii) (Charles E. King)
TTITLE2=(She Walks like you, She Talks like you) She Reminds me of You (Mack Gordon, Harry Revel)
TTITLE3=To Be Worthy You (Walter Gross, Raymond Klages)
TTITLE4=When It`s Sleepy Time Down South (Clarence Muse, Otis Rene, Leon Rene)
TTITLE5=Love is Such A Cheat (Irving Caesar, Gerald Marks, Irma Hollander)
TTITLE6=Necessary Evil (Redd Evans)
TTITLE7=One For My Baby (And One More For The Road) (Harold Arlen, Johnny Mercer)
TTITLE8=Some Day, Sweetheart (M. K. Jerome, Joan Jasmyn)
TTITLE9=A Hundred Years From Today (Victor Young, Ned Washington, Joseph Young)
TTITLE10=Laughing At Life (Charles Kenny, Bob Todd, C. Todd)
TTITLE11=Lullaby In Rhythm (Benny Goodman, Edgar Sampson, Clarence Profit, Walter Hirsch)
TTITLE12=Willow Weep For Me (Ann Ronell)
TTITLE13=My Ohio Home (Gus Kahn, Walter Donaldson)
TTITLE14=Judy (Hoagy Carmichael, Sammy Lerner)
TTITLE15=After You`ve Gone (Turner Layton, Henry Creamer)
EXTD=YEAR: 1999
EXTT0=
EXTT1=
EXTT2=
EXTT3=
EXTT4=
EXTT5=
EXTT6=
EXTT7=
EXTT8=
EXTT9=
EXTT10=
EXTT11=
EXTT12=
EXTT13=
EXTT14=
EXTT15=
PLAYORDER=
